<?xml version="1.0" encoding="UTF-8" standalone="no"?>
<svg
   xmlns:dc="http://purl.org/dc/elements/1.1/"
   xmlns:cc="http://creativecommons.org/ns#"
   xmlns:rdf="http://www.w3.org/1999/02/22-rdf-syntax-ns#"
   xmlns:svg="http://www.w3.org/2000/svg"
   xmlns="http://www.w3.org/2000/svg"
   xmlns:sodipodi="http://sodipodi.sourceforge.net/DTD/sodipodi-0.dtd"
   xmlns:inkscape="http://www.inkscape.org/namespaces/inkscape"
   id="Ebene_1"
   data-name="Ebene 1"
   viewBox="0 0 708.65521 175.21241"
   version="1.1"
   sodipodi:docname="pymor_logo.svg"
   width="708.65521"
   height="175.2124"
   inkscape:version="0.92.4 (5da689c313, 2019-01-14)">
  <metadata
     id="metadata1574">
    <rdf:RDF>
      <cc:Work
         rdf:about="">
        <dc:format>image/svg+xml</dc:format>
        <dc:type
           rdf:resource="http://purl.org/dc/dcmitype/StillImage" />
        <dc:title></dc:title>
      </cc:Work>
    </rdf:RDF>
  </metadata>
  <sodipodi:namedview
     pagecolor="#ffffff"
     bordercolor="#666666"
     borderopacity="1"
     objecttolerance="10"
     gridtolerance="10"
     guidetolerance="10"
     inkscape:pageopacity="0"
     inkscape:pageshadow="2"
     inkscape:window-width="1916"
     inkscape:window-height="1160"
     id="namedview1572"
     showgrid="false"
     fit-margin-top="0"
     fit-margin-left="0"
     fit-margin-right="0"
     fit-margin-bottom="0"
     inkscape:zoom="1.0759654"
     inkscape:cx="367.09374"
     inkscape:cy="-18.53445"
     inkscape:window-x="0"
     inkscape:window-y="38"
     inkscape:window-maximized="0"
     inkscape:current-layer="Ebene_1" />
  <defs
     id="defs1565">
    <style
       id="style1554">.cls-1{fill:url(#Unbenannter_Verlauf);}.cls-2{fill:none;}</style>
    <linearGradient
       id="Unbenannter_Verlauf"
       x1="0.54000002"
       y1="752.45001"
       x2="709.20001"
       y2="752.45001"
       gradientTransform="translate(0,-664)"
       gradientUnits="userSpaceOnUse">
      <stop
         offset="0"
         stop-color="#4aadd5"
         id="stop1556" />
      <stop
         offset="0.51"
         stop-color="#2d4697"
         id="stop1558" />
      <stop
         offset="0.81"
         stop-color="#232a58"
         id="stop1560" />
      <stop
         offset="1"
         stop-color="#1b1c3a"
         id="stop1562" />
    </linearGradient>
  </defs>
  <path
     class="cls-1"
     d="m 489.2,175.16185 q -36.35,0 -59.24,-23.66 -22.89,-23.66 -22.89,-61.619996 0,-40.12 23.25,-64.91 23.25,-24.78999993 61.6,-24.80999993 36.23,0 58.59,23.71999993 22.36,23.72 22.36,62.58 0,39.889996 -23.19,64.319996 -23.19,24.43 -60.48,24.38 z m 1.82,-142.259996 q -20,0 -31.81,15 -11.81,15 -11.75,39.82 0,25.099996 11.78,39.699996 11.78,14.6 30.87,14.61 19.68,0 31.22,-14.2 11.54,-14.2 11.55,-39.409996 0,-26.27 -11.19,-40.88 -11.19,-14.61 -30.67,-14.6 z M 223.53,9.4018541 a 10.16,10.16 0 0 1 -0.84,3.9299999 L 169.27,169.74185 a 9.26,9.26 0 0 1 -8.55,5.47 h -31.58 a 9.43,9.43 0 0 1 -9.39,-9.38 9.28,9.28 0 0 1 0.67,-3.48 l 12.2,-35.58 -7.41,-21.69 c -14,13.32 -35.57,20.3 -63.25,20.3 h -8.83 v 40.37 a 9.71,9.71 0 0 1 -9.67,9.41 H 9.38 A 9.39,9.39 0 0 1 0,165.78185 L 0.28,9.4018541 c 0,-3.92 3.45,-7.75 6.54,-8.74000003 a 25.15,25.15 0 0 1 6.78,-0.64 h 120.65 a 9.41,9.41 0 0 1 8.86,6.29000003 l 14.64,43.8499999 a 0.56,0.56 0 0 0 1.05,0 L 173.46,6.3118541 a 9.4,9.4 0 0 1 8.89,-6.29000003 h 31.82 a 9.43,9.43 0 0 1 9.36,9.38000003 z M 160.05,161.82185 210.59,13.891854 a 2.21,2.21 0 0 0 -2.13,-2.92 h -22 a 3.58,3.58 0 0 0 -3.4,2.44 l -24.24,71.59 a 0.55,0.55 0 0 1 -1.05,0 l -24.19,-71.59 a 3.58,3.58 0 0 0 -3.4,-2.44 h -115 a 3.59,3.59 0 0 0 -3.59,3.59 V 160.68185 a 3.59,3.59 0 0 0 3.59,3.59 h 23.07 a 3.59,3.59 0 0 0 3.59,-3.59 v -46.6 h 20.13 c 27.41,0 47.76,-7.29 59.11,-21.119996 0.61,-0.74 1.19,-1.5 1.75,-2.29 l 3.37,-4.71 2.36,-3.31 a 0.55,0.55 0 0 1 1,0.14 l 15,43.879996 -11.84,34.67 a 2.21,2.21 0 0 0 2.09,2.92 h 21.87 a 3.62,3.62 0 0 0 3.37,-2.44 z M 97.59,63.041854 c 0.06,9.41 -3.65,17.36 -10.43,22.37 -6.78,5.01 -16,7.35 -28.5,7.36 h -8 a 8.86,8.86 0 0 1 -8.84,-8.84 v -42.46 a 8.86,8.86 0 0 1 8.84,-8.84 h 10 c 12.22,0 21.18,2.44 27.38,7.42 6.2,4.98 9.6,13.02 9.55,22.99 z m -44.45,14.83 a 3.59,3.59 0 0 0 3.59,3.59 h 1.94 c 10,0 17.13,-1.69 21.75,-5.12 v 0 0 c 3.91,-2.88 5.87,-7.34 5.84,-13.24 v 0 c 0,-6.52 -1.77,-11.28 -5.36,-14.16 -4.12,-3.31 -10.76,-4.92 -20.3,-4.93 h -3.87 a 3.59,3.59 0 0 0 -3.59,3.59 z m 347.71,89.849996 -55,-161.2999959 a 1.39,1.39 0 0 0 -1.31,-0.94 h -41.8 a 1.39,1.39 0 0 0 -1.31,0.93 L 277.92,77.411854 a 0.55,0.55 0 0 1 -1,0 L 253.1,5.8618541 a 0.55,0.55 0 0 0 -1,0 L 229.68,71.251854 a 1.36,1.36 0 0 0 0,0.89 l 26.15,76.859996 a 1.39,1.39 0 0 0 1.31,0.94 h 40.76 a 1.39,1.39 0 0 0 1.31,-0.94 l 24.25,-71.159996 a 0.55,0.55 0 0 1 1,0 l 31,90.769996 a 1.39,1.39 0 0 0 1.31,0.94 h 42.78 a 1.39,1.39 0 0 0 1.3,-1.83 z m 306.42,2 a 1.38,1.38 0 0 0 1.17,-2.12 l -27.07,-42.62 q -2.46,-3.91 -5.45,-8 a 86.68,86.68 0 0 0 -6.29,-7.64 51.45,51.45 0 0 0 -6.81,-6.21 24.21,24.21 0 0 0 -7.28,-3.859996 v -0.47 a 61.43,61.43 0 0 0 15.56,-6.87 48.41,48.41 0 0 0 11.92,-10.42 45.51,45.51 0 0 0 7.63,-13.55 48.29,48.29 0 0 0 2.7,-16.41 c 0,-30.79 -20.52,-46.0999999 -61.38,-46.0999999 h -51.51 a 1.38,1.38 0 0 0 -1.31,1.82 l 8.54,25.8199999 a 1.39,1.39 0 0 0 1.31,0.94 h 38 q 26.46,0 26.46,22.26 a 23.79,23.79 0 0 1 -7.54,17.87 q -7.4,7.11 -19.61,7.11 h -20.07 a 1.38,1.38 0 0 0 -1.31,1.82 l 8.83,26.129996 a 1.39,1.39 0 0 0 1.31,0.94 h 5 a 14.49,14.49 0 0 1 6.52,1.49 21.82,21.82 0 0 1 5.75,4.26 49.8,49.8 0 0 1 5.46,6.69 c 1.8,2.6 3.68,5.57 5.64,8.88 l 24.29,37.59 a 1.38,1.38 0 0 0 1.16,0.63 z"
     id="path1567"
     inkscape:connector-curvature="0"
     style="fill:url(#Unbenannter_Verlauf)" />
  <rect
     class="cls-2"
     x="-0.82999998"
     y="-23.358147"
     width="448.72"
     height="45.040001"
     id="rect1569"
     style="fill:none" />
</svg>
